<svg xmlns="http://www.w3.org/2000/svg" xmlns:xlink="http://www.w3.org/1999/xlink" version="1.1" x="0px" y="0px" viewBox="0 0 66 82.5" enable-background="new 0 0 66 66" xml:space="preserve"><g><g><path d="M58.8,44.9v-3.6c0-0.4-0.3-0.7-0.6-0.7l-8-1.6c-0.2,0.5-0.5,0.9-0.8,1.4l7.9,1.6v3c-1.5,0.3-2.6,1.7-2.6,3.3    c0,1.9,1.5,3.4,3.4,3.4c1.9,0,3.4-1.5,3.4-3.4C61.4,46.6,60.3,45.2,58.8,44.9z"/></g><g><path d="M49.6,15.1c0.3,0.5,0.6,1,0.8,1.5h5c0.4,0,0.8-0.3,0.8-0.8V13c1.5-0.3,2.6-1.7,2.6-3.3c0-1.9-1.5-3.4-3.4-3.4    c-1.9,0-3.4,1.5-3.4,3.4c0,1.6,1.1,2.9,2.6,3.3v2.1H49.6z"/></g><g><path d="M49.9,48.8v-2.9c0-0.4-0.3-0.8-0.8-0.8h-3.7c-0.1,0.1-0.2,0.2-0.3,0.3c-0.4,0.4-0.9,0.8-1.4,1.2h4.6v2.2    c-1.5,0.3-2.6,1.7-2.6,3.3c0,1.9,1.5,3.4,3.4,3.4c1.9,0,3.4-1.5,3.4-3.4C52.5,50.5,51.4,49.1,49.9,48.8z"/></g><g><path d="M61.3,29.6c-1.6,0-2.9,1.1-3.3,2.6h-5.6c-0.1,0.5-0.2,1-0.3,1.5h5.9c0.3,1.5,1.7,2.6,3.3,2.6c1.9,0,3.4-1.5,3.4-3.4    C64.7,31.1,63.2,29.6,61.3,29.6z"/></g><g><path d="M60.9,19.5v3l-8.2,1.6c0.1,0.5,0.1,1,0.2,1.5l8.9-1.8c0.3-0.1,0.6-0.4,0.6-0.7v-3.6c1.5-0.3,2.6-1.7,2.6-3.3    c0-1.9-1.5-3.4-3.4-3.4c-1.9,0-3.4,1.5-3.4,3.4C58.2,17.8,59.4,19.2,60.9,19.5z"/></g><g><path d="M47.6,40.3c2.5-3.8,3.8-8.2,3.8-12.8c0-12.7-10.3-23.1-23.1-23.1C15.6,4.4,5.3,14.8,5.3,27.5c0,1.4,0.1,2.8,0.4,4.2    l-4.6,8.4C1,40.3,1,40.5,1,40.7c0.1,0.2,0.2,0.4,0.4,0.4l6.2,2.4V54c0,0.4,0.3,0.8,0.8,0.8h8.9v6c0,0.4,0.3,0.8,0.8,0.8h21.6    c0.4,0,0.8-0.3,0.8-0.8V47.2c1.4-0.8,2.7-1.8,3.8-2.9C45.4,43.3,47.5,40.4,47.6,40.3z M43.1,26.2c0,0.9-0.1,5.8-2.1,8.4    c-0.2,1.2-1.1,6.6-4.9,8.6c-1,0.5-2,0.8-3.2,0.8c-1.3,0-2.7-0.3-4.1-1c-1.5,0.7-2.9,1-4.1,1c-1.1,0-2.2-0.3-3.2-0.8    c-3.7-2.1-4.7-7.5-4.9-8.6c-2-2.5-2.1-7.5-2.1-8.4c-2.2-5.7,2.8-11.7,3-12c3.1-3.3,6-4.9,8.5-4.8c1.3,0.1,2.2,0.5,2.7,0.9    c0.5-0.4,1.4-0.9,2.7-0.9c2.5-0.1,5.4,1.5,8.5,4.8C40.3,14.5,45.2,20.5,43.1,26.2z"/></g><g><path d="M25.9,10.9c-1.4,0-3.8,0.8-7.2,4.3c0,0-4.6,5.7-2.7,10.6c0,0.1,0.1,0.2,0.1,0.3c0,0.1,0,5.5,1.9,7.7    c0.1,0.1,0.2,0.3,0.2,0.4c0,0.1,0.7,5.8,4.1,7.7c1.2,0.7,2.6,0.8,4.3,0.3c-0.9-0.5-1.8-1.4-2-2.7c-0.1-0.4,0.2-0.8,0.6-0.9    c0.4-0.1,0.8,0.2,0.9,0.6c0.2,1.2,1.3,1.8,2,2V32c-0.5,0.3-1.2,0.6-2.2,0.9c-0.1,0-0.2,0-0.2,0c-0.3,0-0.6-0.2-0.7-0.5    c-0.1-0.4,0.1-0.8,0.5-1c1.8-0.6,2.3-1,2.4-1.1c0.1-0.1,0.2-0.2,0.3-0.3v-8.7c-0.5-0.2-0.9-0.1-1.3,0c-1.3,0.6-2.3,2.9-2.7,4.4    c0.6,0,1.2,0,1.7,0.2c0.4,0.1,0.6,0.6,0.5,1c-0.1,0.4-0.6,0.6-1,0.5c-2-0.7-4.6,0.9-5.4,1.6c-0.1,0.1-0.3,0.2-0.5,0.2    c0,0-0.1,0-0.1,0L17,28.7c-0.4-0.1-0.7-0.5-0.6-0.9c0.1-0.4,0.5-0.7,0.9-0.6l2,0.4c0.5-0.4,1.8-1.2,3.2-1.6c0.3-1.2,1.4-4.9,3.7-6    c0.6-0.3,1.3-0.3,1.9-0.2v-8.2c-0.3-0.3-1-0.7-2.1-0.8C26,10.9,25.9,10.9,25.9,10.9z M22.2,30.1c0.4-0.2,0.8,0,1,0.3    c1.9,3.7,1,8.1,1,8.2c-0.1,0.4-0.4,0.6-0.7,0.6c0,0-0.1,0-0.1,0c-0.4-0.1-0.7-0.5-0.6-0.9c0,0,0.8-4-0.9-7.3    C21.7,30.7,21.8,30.2,22.2,30.1z M24,17.4c-0.1,0-1.2,0.1-2,1.1c-0.8,1-1,2.6-0.7,4.7c0.1,0.4-0.2,0.8-0.6,0.9c0,0-0.1,0-0.1,0    c-0.4,0-0.7-0.3-0.7-0.6c-0.3-1.9-0.2-3.6,0.4-4.8c-0.2-0.3-0.9-2-0.5-3.8c0.1-0.4,0.5-0.7,0.9-0.6c0.4,0.1,0.7,0.5,0.6,0.9    c-0.1,0.7,0,1.5,0.1,2c1.2-1.1,2.6-1.3,2.6-1.3c0.4,0,0.8,0.3,0.8,0.7C24.8,17,24.5,17.3,24,17.4z"/></g><g><path d="M31.7,10.9c-1.1,0-1.8,0.5-2.1,0.8v8.2c0.7-0.1,1.3-0.1,1.9,0.2c2.3,1.1,3.4,4.8,3.7,6c1.5,0.4,2.7,1.2,3.2,1.6l2-0.4    c0.4-0.1,0.8,0.2,0.9,0.6c0.1,0.4-0.2,0.8-0.6,0.9l-2.3,0.4c0,0-0.1,0-0.1,0c-0.2,0-0.3-0.1-0.5-0.2c0,0-3-2.4-5.4-1.6    c-0.4,0.1-0.8-0.1-1-0.5c-0.1-0.4,0.1-0.8,0.5-1c0.6-0.2,1.2-0.3,1.7-0.2c-0.4-1.5-1.4-3.8-2.7-4.4c-0.4-0.2-0.8-0.2-1.3,0v8.7    c0.1,0.1,0.2,0.2,0.3,0.3c0.1,0.1,0.7,0.5,2.4,1.1c0.4,0.1,0.6,0.6,0.5,1c-0.1,0.3-0.4,0.5-0.7,0.5c-0.1,0-0.2,0-0.2,0    c-1-0.4-1.7-0.7-2.2-0.9v9.3c0.8-0.2,1.8-0.8,2-2c0.1-0.4,0.5-0.7,0.9-0.6c0.4,0.1,0.7,0.5,0.6,0.9c-0.2,1.3-1.1,2.2-2,2.7    c1.6,0.4,3.1,0.3,4.3-0.3c3.4-1.9,4.1-7.7,4.1-7.7c0-0.1,0.1-0.3,0.2-0.4c1.6-1.9,1.9-6.2,1.9-7.7c0-0.1,0-0.2,0.1-0.3    c2-4.9-2.6-10.6-2.7-10.6C35.5,11.6,33.1,10.9,31.7,10.9z M37.8,23.5c-0.1,0.4-0.4,0.6-0.7,0.6c0,0-0.1,0-0.1,0    c-0.4-0.1-0.7-0.4-0.6-0.9c0.3-2.1,0.1-3.7-0.7-4.7c-0.8-1-1.9-1.1-2-1.1c-0.4,0-0.7-0.4-0.7-0.8c0-0.4,0.4-0.7,0.8-0.7    c0.1,0,1.5,0.1,2.6,1.3c0.1-0.5,0.2-1.3,0.1-2c-0.1-0.4,0.2-0.8,0.6-0.9c0.4-0.1,0.8,0.2,0.9,0.6c0.3,1.8-0.4,3.4-0.5,3.8    C38,19.9,38.1,21.5,37.8,23.5z M35.8,31.1c-1.6,3.3-0.9,7.2-0.9,7.3c0.1,0.4-0.2,0.8-0.6,0.9c0,0-0.1,0-0.1,0    c-0.4,0-0.7-0.2-0.7-0.6c0-0.2-0.9-4.5,1-8.2c0.2-0.4,0.6-0.5,1-0.3C35.9,30.2,36,30.7,35.8,31.1z"/></g></g><text x="0" y="81" fill="#000000" font-size="5px" font-weight="bold" font-family="'Helvetica Neue', Helvetica, Arial-Unicode, Arial, Sans-serif">Created by Vectors Market</text><text x="0" y="86" fill="#000000" font-size="5px" font-weight="bold" font-family="'Helvetica Neue', Helvetica, Arial-Unicode, Arial, Sans-serif">from the Noun Project</text></svg>